<?xml version="1.0" standalone="no"?>
<!DOCTYPE svg PUBLIC "-//W3C//DTD SVG 20010904//EN"
 "http://www.w3.org/TR/2001/REC-SVG-20010904/DTD/svg10.dtd">
<svg version="1.0" xmlns="http://www.w3.org/2000/svg"
 width="260.000000pt" height="260.000000pt" viewBox="0 0 260.000000 260.000000"
 preserveAspectRatio="xMidYMid meet">
<metadata>
Created by potrace 1.11, written by Peter Selinger 2001-2013
</metadata>
<g transform="translate(0.000000,260.000000) scale(0.100000,-0.100000)"
fill="#000000" stroke="none">
<path d="M462 2159 c-78 -25 -155 -86 -194 -155 -28 -51 -40 -98 -199 -764
-77 -322 -75 -314 -50 -339 18 -18 33 -21 119 -21 l98 0 12 -59 c37 -179 189
-336 375 -385 76 -21 217 -14 292 12 166 61 301 212 335 377 l11 55 40 0 c40
0 45 -4 53 -50 15 -82 77 -194 145 -260 207 -201 538 -188 732 27 52 58 101
154 119 231 l12 53 47 -1 c135 -5 160 -1 177 26 16 24 15 33 -24 202 -132 562
-203 845 -222 882 -54 105 -160 174 -286 186 -65 6 -70 5 -92 -19 -19 -20 -23
-32 -17 -56 8 -37 24 -47 90 -54 28 -3 67 -12 87 -20 41 -17 96 -70 110 -107
8 -21 129 -519 142 -583 3 -12 21 -88 40 -169 20 -80 36 -149 36 -152 0 -3
-20 -6 -45 -6 -41 0 -45 2 -51 28 -53 242 -238 404 -474 417 -244 13 -466
-154 -522 -392 l-13 -53 -42 0 c-38 0 -43 3 -49 28 -47 212 -200 371 -397 412
-212 43 -415 -39 -536 -219 -38 -56 -81 -163 -81 -201 0 -17 -7 -20 -45 -20
-25 0 -45 2 -45 4 0 2 16 70 35 152 20 82 38 159 41 171 2 12 24 104 48 205
25 101 54 222 65 271 24 100 38 131 77 170 42 43 101 64 177 66 55 2 84 62 51
106 -20 27 -101 29 -182 4z m393 -840 c160 -42 289 -220 279 -388 -4 -78 -13
-110 -46 -172 -105 -200 -356 -270 -543 -152 -182 116 -239 364 -123 545 93
146 261 211 433 167z m1113 -9 c206 -67 318 -300 242 -503 -120 -322 -554
-338 -703 -27 -27 54 -32 78 -34 147 -4 154 60 272 189 348 95 56 203 68 306
35z"/>
</g>
</svg>
